<svg width="25" height="24" viewBox="0 0 25 24" fill="none" xmlns="http://www.w3.org/2000/svg">
<path d="M3.53674 7.43994L12.3667 12.5499L21.1367 7.46991" stroke="#0F172A" stroke-width="1.5" stroke-linecap="round" stroke-linejoin="round"/>
<path d="M12.3667 21.61V12.54" stroke="#0F172A" stroke-width="1.5" stroke-linecap="round" stroke-linejoin="round"/>
<path d="M10.2967 2.48L4.9567 5.45003C3.7467 6.12003 2.75671 7.80001 2.75671 9.18001V14.83C2.75671 16.21 3.7467 17.89 4.9567 18.56L10.2967 21.53C11.4367 22.16 13.3067 22.16 14.4467 21.53L19.7867 18.56C20.9967 17.89 21.9867 16.21 21.9867 14.83V9.18001C21.9867 7.80001 20.9967 6.12003 19.7867 5.45003L14.4467 2.48C13.2967 1.84 11.4367 1.84 10.2967 2.48Z" stroke="#0F172A" stroke-width="1.5" stroke-linecap="round" stroke-linejoin="round"/>
<path d="M17.3667 13.2401V9.58014L7.87671 4.1001" stroke="#0F172A" stroke-width="1.5" stroke-linecap="round" stroke-linejoin="round"/>
</svg>
