<svg width="24" height="18" viewBox="0 0 24 18" fill="none" xmlns="http://www.w3.org/2000/svg">
<g clip-path="url(#clip0_3605_910)">
<path d="M0 0H7.99875V18H0V0Z" fill="#007A5E"/>
<path d="M7.99878 0H16.0013V18H7.99878V0Z" fill="#CE1126"/>
<path d="M16.0012 0H24V18H16.0012V0Z" fill="#FCD116"/>
<path d="M12 6.86667L11.3333 8.89333L12.3466 9.24L12 6.86667Z" fill="#FCD116"/>
<path d="M12 6.86667L12.6666 8.89333L11.6533 9.24L12 6.86667Z" fill="#FCD116"/>
<path d="M14.0289 8.34076L11.8955 8.333L11.8789 9.40386L14.0289 8.34076Z" fill="#FCD116"/>
<path d="M14.029 8.34076L12.3075 9.60107L11.6647 8.74446L14.029 8.34076Z" fill="#FCD116"/>
<path d="M13.2539 10.7259L12.602 8.69444L11.5785 9.0096L13.2539 10.7259Z" fill="#FCD116"/>
<path d="M13.2539 10.7259L11.5234 9.47815L12.1394 8.60207L13.2539 10.7259Z" fill="#FCD116"/>
<path d="M10.7461 10.7259L12.4766 9.47815L11.8606 8.60207L10.7461 10.7259Z" fill="#FCD116"/>
<path d="M10.7461 10.7259L11.398 8.69444L12.4215 9.0096L10.7461 10.7259Z" fill="#FCD116"/>
<path d="M9.97109 8.34077L11.6925 9.60108L12.3354 8.74447L9.97109 8.34077Z" fill="#FCD116"/>
<path d="M9.97111 8.34078L12.1046 8.33301L12.1212 9.40388L9.97111 8.34078Z" fill="#FCD116"/>
</g>
<defs>
<clipPath id="clip0_3605_910">
<rect width="24" height="18" fill="white"/>
</clipPath>
</defs>
</svg>
