<svg width="44" height="44" viewBox="0 0 44 44" fill="none" xmlns="http://www.w3.org/2000/svg">
<rect width="44" height="44" rx="22" fill="#0F172A"/>
<path d="M22 26.1665L22.8333 24.4998V20.2148C24.2675 19.8423 25.3333 18.5482 25.3333 16.9998C25.3333 15.1615 23.8383 13.6665 22 13.6665C20.1616 13.6665 18.6666 15.1615 18.6666 16.9998C18.6666 18.5482 19.7325 19.8423 21.1666 20.2148V24.4998L22 26.1665ZM20.3333 16.9998C20.3333 16.0807 21.0808 15.3332 22 15.3332C22.9191 15.3332 23.6666 16.0807 23.6666 16.9998C23.6666 17.919 22.9191 18.6665 22 18.6665C21.0808 18.6665 20.3333 17.919 20.3333 16.9998Z" fill="white"/>
<path d="M25.5558 20.8026L25.1116 22.4093C27.2708 23.0059 28.6666 24.1534 28.6666 25.3334C28.6666 26.9101 25.9291 28.6668 22 28.6668C18.0708 28.6668 15.3333 26.9101 15.3333 25.3334C15.3333 24.1534 16.7291 23.0059 18.8891 22.4084L18.445 20.8018C15.4975 21.6168 13.6666 23.3526 13.6666 25.3334C13.6666 28.1368 17.3275 30.3334 22 30.3334C26.6725 30.3334 30.3333 28.1368 30.3333 25.3334C30.3333 23.3526 28.5025 21.6168 25.5558 20.8026Z" fill="white"/>
</svg>
