<svg width="40" height="40" viewBox="0 0 40 40" fill="none" xmlns="http://www.w3.org/2000/svg">
<rect width="40" height="40" rx="20" fill="#FF9F29"/>
<path d="M15.8334 25.8333C16.7539 25.8333 17.5001 25.0871 17.5001 24.1667C17.5001 23.2462 16.7539 22.5 15.8334 22.5C14.9129 22.5 14.1667 23.2462 14.1667 24.1667C14.1667 25.0871 14.9129 25.8333 15.8334 25.8333Z" stroke="white" stroke-width="1.5" stroke-linecap="round" stroke-linejoin="round"/>
<path d="M24.1667 25.8333C25.0871 25.8333 25.8333 25.0871 25.8333 24.1667C25.8333 23.2462 25.0871 22.5 24.1667 22.5C23.2462 22.5 22.5 23.2462 22.5 24.1667C22.5 25.0871 23.2462 25.8333 24.1667 25.8333Z" stroke="white" stroke-width="1.5" stroke-linecap="round" stroke-linejoin="round"/>
<path d="M14.1667 24.1665H12.5001V20.8332M11.6667 14.1665H20.8334V24.1665M17.5001 24.1665H22.5001M25.8334 24.1665H27.5001V19.1665H20.8334M20.8334 14.9998H25.0001L27.5001 19.1665M12.5001 17.4998H15.8334" stroke="white" stroke-width="1.5" stroke-linecap="round" stroke-linejoin="round"/>
</svg>
