<svg width="20" height="20" viewBox="0 0 20 20" fill="none" xmlns="http://www.w3.org/2000/svg">
<g id="map-pin">
<g id="Group">
<path id="Vector" d="M10 11.6665C11.3807 11.6665 12.5 10.5472 12.5 9.1665C12.5 7.78579 11.3807 6.6665 10 6.6665C8.61929 6.6665 7.5 7.78579 7.5 9.1665C7.5 10.5472 8.61929 11.6665 10 11.6665Z" stroke="#0F172A" stroke-width="1.5" stroke-linecap="round" stroke-linejoin="round"/>
<path id="Vector_2" d="M14.7142 13.8806L11.1784 17.4164C10.8659 17.7286 10.4422 17.904 10.0005 17.904C9.55872 17.904 9.13506 17.7286 8.82254 17.4164L5.28588 13.8806C4.35356 12.9482 3.71866 11.7603 3.46145 10.4671C3.20424 9.17395 3.33629 7.83352 3.84088 6.61536C4.34547 5.39721 5.19996 4.35604 6.29628 3.62351C7.3926 2.89098 8.68152 2.5 10 2.5C11.3186 2.5 12.6075 2.89098 13.7038 3.62351C14.8001 4.35604 15.6546 5.39721 16.1592 6.61536C16.6638 7.83352 16.7958 9.17395 16.5386 10.4671C16.2814 11.7603 15.6465 12.9482 14.7142 13.8806V13.8806Z" stroke="#0F172A" stroke-width="1.5" stroke-linecap="round" stroke-linejoin="round"/>
</g>
</g>
</svg>
