<svg width="48" height="49" viewBox="0 0 48 49" fill="none" xmlns="http://www.w3.org/2000/svg">
<rect y="0.5" width="48" height="48" rx="24" fill="#22C55E"/>
<path d="M24 27C25.3807 27 26.5 25.8807 26.5 24.5C26.5 23.1193 25.3807 22 24 22C22.6193 22 21.5 23.1193 21.5 24.5C21.5 25.8807 22.6193 27 24 27Z" stroke="white" stroke-width="1.5" stroke-miterlimit="10" stroke-linecap="round" stroke-linejoin="round"/>
<path d="M30.5 22V27" stroke="white" stroke-width="1.5" stroke-miterlimit="10" stroke-linecap="round" stroke-linejoin="round"/>
<path d="M21 30.5C21 31.25 20.79 31.96 20.42 32.56C19.73 33.72 18.46 34.5 17 34.5C15.54 34.5 14.27 33.72 13.58 32.56C13.21 31.96 13 31.25 13 30.5C13 28.29 14.79 26.5 17 26.5C19.21 26.5 21 28.29 21 30.5Z" stroke="white" stroke-width="1.5" stroke-miterlimit="10" stroke-linecap="round" stroke-linejoin="round"/>
<path d="M15.4414 30.4995L16.4314 31.4895L18.5614 29.5195" stroke="white" stroke-width="1.5" stroke-linecap="round" stroke-linejoin="round"/>
<path d="M14 27.8V21.5C14 18 16 16.5 19 16.5H29C32 16.5 34 18 34 21.5V27.5C34 31 32 32.5 29 32.5H20.5" stroke="white" stroke-width="1.5" stroke-miterlimit="10" stroke-linecap="round" stroke-linejoin="round"/>
</svg>
