<svg width="148" height="136" viewBox="0 0 148 136" fill="none" xmlns="http://www.w3.org/2000/svg">
<rect x="8.5" y="0.17334" width="120" height="120" rx="60" fill="#F1F5F9"/>
<circle cx="3.5" cy="27.1733" r="2" fill="#FFD9A9"/>
<circle cx="132.5" cy="21.1733" r="2" fill="#2DD4BF"/>
<circle cx="144" cy="30.6733" r="3.5" fill="#E2E8F0"/>
<circle cx="2.5" cy="119.173" r="2" fill="#FF8092"/>
<g filter="url(#filter0_d_2420_11775)">
<path d="M111.121 13.027C111.121 11.21 110.398 9.46728 109.113 8.18184C107.827 6.8964 106.084 6.17334 104.265 6.17334H103.61C97.9722 6.4535 95.4507 7.01588 93.9552 8.96258L90.4923 13.027V22.6492L95.6279 38.3402H111.107C111.111 38.3402 111.111 38.3402 111.113 38.3402C111.115 38.3402 111.115 38.3382 111.117 38.3361C111.119 38.3361 111.119 38.3341 111.119 38.332C111.121 38.332 111.121 38.3279 111.121 38.3279V13.027Z" fill="#CBD5E1"/>
<path d="M97.4118 6.17334H43.3574C42.4181 6.17334 41.489 6.35874 40.6217 6.71718C39.7545 7.07768 38.9655 7.60298 38.3022 8.2663C37.6388 8.93168 37.1115 9.7186 36.751 10.5859C36.3926 11.4552 36.2072 12.3842 36.2072 13.3215V93.0888L44.064 104.378C61.6296 106.267 85.4988 109.027 90.5582 109.173C91.4584 109.173 92.3483 108.996 93.1826 108.652C94.0128 108.308 94.7688 107.801 95.4054 107.167C96.0419 106.53 96.5466 105.774 96.8906 104.942C97.2367 104.11 97.4118 103.218 97.4118 102.32V13.027C97.4118 12.1267 97.589 11.2348 97.933 10.4046C98.277 9.57234 98.7838 8.81632 99.4203 8.17978C100.055 7.5453 100.813 7.03854 101.643 6.69452C102.475 6.3505 103.367 6.17334 104.265 6.17334H103.61H97.4118Z" fill="white"/>
<path d="M44.7007 26.8111H56.5004C57.0113 26.8111 57.5016 26.6092 57.8641 26.2467C58.2267 25.8841 58.4306 25.3938 58.4306 24.8809C58.4306 24.368 58.2267 23.8777 57.8641 23.5151C57.5016 23.1546 57.0113 22.9507 56.5004 22.9507H44.7007C44.1899 22.9507 43.6975 23.1546 43.337 23.5151C42.9744 23.8777 42.7705 24.368 42.7705 24.8809C42.7705 25.3938 42.9744 25.8841 43.337 26.2467C43.6975 26.6092 44.1899 26.8111 44.7007 26.8111Z" fill="#CBD5E1"/>
<path d="M84.4961 22.9507H64.854C64.3432 22.9507 63.8508 23.1546 63.4903 23.5151C63.1278 23.8777 62.9238 24.368 62.9238 24.8809C62.9238 25.3938 63.1278 25.8841 63.4903 26.2467C63.8508 26.6092 64.3432 26.8111 64.854 26.8111H84.4961C85.007 26.8111 85.4994 26.6092 85.8599 26.2467C86.2224 25.8841 86.4264 25.3938 86.4264 24.8809C86.4264 24.368 86.2224 23.8777 85.8599 23.5151C85.4994 23.1546 85.007 22.9507 84.4961 22.9507Z" fill="#E2E8F0"/>
<path d="M48.3672 31.7355C48.3672 31.9868 48.4166 32.2381 48.5134 32.473C48.6103 32.7078 48.7545 32.92 48.9316 33.0992C49.1129 33.2784 49.3251 33.4206 49.5599 33.5174C49.7948 33.6142 50.044 33.6637 50.2974 33.6637H69.9395C70.1929 33.6637 70.4442 33.6142 70.679 33.5153C70.9118 33.4185 71.1261 33.2784 71.3053 33.0972C71.4845 32.92 71.6266 32.7058 71.7235 32.4709C71.8203 32.2381 71.8697 31.9868 71.8697 31.7334C71.8697 31.4801 71.8203 31.2287 71.7235 30.996C71.6266 30.7611 71.4845 30.5469 71.3053 30.3677C71.1261 30.1884 70.9118 30.0463 70.679 29.9495C70.4442 29.8527 70.1929 29.8032 69.9395 29.8032H50.2974C50.044 29.8032 49.7927 29.8527 49.5599 29.9495C49.3251 30.0463 49.1129 30.1884 48.9316 30.3677C48.7545 30.5469 48.6103 30.7611 48.5134 30.996C48.4166 31.2287 48.3672 31.4801 48.3672 31.7355Z" fill="#E2E8F0"/>
<path d="M84.4958 36.5269H44.7007C44.1899 36.5269 43.6975 36.7308 43.337 37.0934C42.9744 37.4559 42.7705 37.9462 42.7705 38.4591C42.7705 38.97 42.9744 39.4603 43.337 39.8229C43.6975 40.1854 44.1899 40.3873 44.7007 40.3873H84.4958C85.0067 40.3873 85.499 40.1854 85.8595 39.8229C86.2221 39.4603 86.426 38.97 86.426 38.4591C86.426 37.9462 86.2221 37.4559 85.8595 37.0934C85.499 36.7308 85.0067 36.5269 84.4958 36.5269Z" fill="#CBD5E1"/>
<path d="M84.4957 43.1148H44.7006C44.4452 43.1127 44.1918 43.1622 43.9569 43.259C43.72 43.3538 43.5058 43.4959 43.3245 43.6751C43.1432 43.8543 43.0011 44.0686 42.9022 44.3034C42.8033 44.5383 42.7539 44.7896 42.7539 45.0471C42.7539 45.3005 42.8033 45.5538 42.9022 45.7887C43.0011 46.0235 43.1432 46.2378 43.3245 46.417C43.5058 46.5962 43.72 46.7383 43.9569 46.8331C44.1918 46.9299 44.4452 46.9794 44.7006 46.9752H84.4957C84.7491 46.9794 85.0024 46.9299 85.2393 46.8331C85.4742 46.7383 85.6884 46.5962 85.8697 46.417C86.051 46.2378 86.1952 46.0235 86.292 45.7887C86.3909 45.5538 86.4424 45.3005 86.4424 45.0471C86.4424 44.7896 86.3909 44.5383 86.292 44.3034C86.1952 44.0686 86.051 43.8543 85.8697 43.6751C85.6884 43.4959 85.4742 43.3538 85.2393 43.259C85.0024 43.1622 84.7491 43.1127 84.4957 43.1148Z" fill="#CBD5E1"/>
<path d="M84.4959 49.7027H56.6489C56.3934 49.7006 56.1421 49.7501 55.9052 49.8469C55.6683 49.9417 55.454 50.0838 55.2728 50.263C55.0935 50.4422 54.9493 50.6565 54.8505 50.8913C54.7536 51.1262 54.7021 51.3795 54.7021 51.635C54.7021 51.8884 54.7536 52.1417 54.8505 52.3766C54.9493 52.6114 55.0935 52.8257 55.2728 53.0049C55.454 53.1841 55.6683 53.3262 55.9052 53.421C56.1421 53.5178 56.3934 53.5673 56.6489 53.5631H84.4959C84.7493 53.5673 85.0027 53.5178 85.2396 53.421C85.4744 53.3262 85.6887 53.1841 85.8699 53.0049C86.0512 52.8257 86.1954 52.6114 86.2922 52.3766C86.3911 52.1417 86.4426 51.8884 86.4426 51.635C86.4426 51.3795 86.3911 51.1262 86.2922 50.8913C86.1954 50.6565 86.0512 50.4422 85.8699 50.263C85.6887 50.0838 85.4744 49.9417 85.2396 49.8469C85.0027 49.7501 84.7493 49.7006 84.4959 49.7027Z" fill="#CBD5E1"/>
<path d="M44.7007 60.1539H64.7363C65.2492 60.1539 65.7395 59.95 66.1021 59.5874C66.4626 59.2248 66.6665 58.7346 66.6665 58.2237C66.6665 57.7107 66.4626 57.2205 66.1021 56.8579C65.7395 56.4974 65.2492 56.2935 64.7363 56.2935H44.7007C44.1899 56.2935 43.6975 56.4974 43.337 56.8579C42.9744 57.2205 42.7705 57.7107 42.7705 58.2237C42.7705 58.7346 42.9744 59.2248 43.337 59.5874C43.6975 59.95 44.1899 60.1539 44.7007 60.1539Z" fill="#CBD5E1"/>
<path d="M84.4958 62.8804H44.7007C44.4474 62.8804 44.196 62.9298 43.9632 63.0266C43.7284 63.1234 43.5142 63.2656 43.337 63.4448C43.1557 63.624 43.0136 63.8362 42.9168 64.0711C42.82 64.3059 42.7705 64.5551 42.7705 64.8106C42.7705 65.064 42.82 65.3132 42.9168 65.5481C43.0136 65.7829 43.1557 65.9951 43.337 66.1743C43.5142 66.3535 43.7284 66.4957 43.9632 66.5925C44.196 66.6914 44.4474 66.7408 44.7007 66.7408H84.4958C84.7492 66.7408 85.0005 66.6914 85.2333 66.5925C85.4681 66.4957 85.6824 66.3535 85.8595 66.1743C86.0408 65.9951 86.1829 65.7829 86.2777 65.5481C86.3766 65.3132 86.426 65.064 86.426 64.8106C86.426 64.5551 86.3766 64.3059 86.2777 64.0711C86.1829 63.8362 86.0408 63.624 85.8595 63.4448C85.6824 63.2656 85.4681 63.1234 85.2333 63.0266C85.0005 62.9298 84.7492 62.8804 84.4958 62.8804Z" fill="#CBD5E1"/>
<path d="M64.7363 70.9956H44.7007C44.1899 70.9956 43.6975 71.1995 43.337 71.5621C42.9744 71.9226 42.7705 72.4149 42.7705 72.9258C42.7705 73.4388 42.9744 73.9311 43.337 74.2916C43.6975 74.6542 44.1899 74.8581 44.7007 74.8581H64.7363C65.2492 74.8581 65.7395 74.6542 66.1021 74.2916C66.4626 73.9311 66.6665 73.4388 66.6665 72.9258C66.6665 72.4149 66.4626 71.9226 66.1021 71.5621C65.7395 71.1995 65.2492 70.9956 64.7363 70.9956Z" fill="#CBD5E1"/>
<path d="M22.5144 93.0884C22.5124 93.0884 22.5103 93.0884 22.5082 93.0884C22.5062 93.0904 22.5062 93.0904 22.5041 93.0925C22.5021 93.0925 22.5021 93.0946 22.5021 93.0966C22.5 93.0987 22.5 93.1007 22.5 93.1007V102.319C22.5 103.217 22.6772 104.109 23.0212 104.942C23.3673 105.774 23.872 106.53 24.5064 107.164C25.145 107.801 25.899 108.308 26.7312 108.652C27.5635 108.996 28.4534 109.173 29.3557 109.173H90.5583C89.6581 109.173 88.7681 108.996 87.9338 108.65C87.1037 108.308 86.3476 107.801 85.7111 107.164C85.0746 106.53 84.5699 105.774 84.2258 104.942C83.8818 104.109 83.7047 103.217 83.7047 102.319V93.1007C83.7047 93.1007 83.7047 93.0987 83.7047 93.0966C83.7026 93.0946 83.7026 93.0925 83.7005 93.0925C83.7005 93.0904 83.6985 93.0904 83.6964 93.0884C83.6944 93.0884 83.6923 93.0884 83.6923 93.0884H22.5144Z" fill="#CBD5E1"/>
</g>
<circle cx="110.5" cy="85.1733" r="20" fill="#FF9F29" stroke="white" stroke-width="3"/>
<path fill-rule="evenodd" clip-rule="evenodd" d="M102.167 84.0648C102.167 80.0746 105.367 76.8398 109.315 76.8398C111.21 76.8398 113.029 77.601 114.369 78.956C115.71 80.3109 116.463 82.1486 116.463 84.0648C116.463 88.055 113.262 91.2897 109.315 91.2897C105.367 91.2897 102.167 88.055 102.167 84.0648ZM116.344 89.8851L118.473 91.6035H118.51C118.941 92.0389 118.941 92.7447 118.51 93.18C118.08 93.6153 117.381 93.6153 116.951 93.18L115.184 91.1552C115.017 90.987 114.923 90.7585 114.923 90.5202C114.923 90.2818 115.017 90.0533 115.184 89.8851C115.506 89.5652 116.022 89.5652 116.344 89.8851Z" fill="white"/>
<defs>
<filter id="filter0_d_2420_11775" x="14.5" y="0.17334" width="120.621" height="135" filterUnits="userSpaceOnUse" color-interpolation-filters="sRGB">
<feFlood flood-opacity="0" result="BackgroundImageFix"/>
<feColorMatrix in="SourceAlpha" type="matrix" values="0 0 0 0 0 0 0 0 0 0 0 0 0 0 0 0 0 0 127 0" result="hardAlpha"/>
<feOffset dx="8" dy="10"/>
<feGaussianBlur stdDeviation="8"/>
<feComposite in2="hardAlpha" operator="out"/>
<feColorMatrix type="matrix" values="0 0 0 0 0.0588235 0 0 0 0 0.0901962 0 0 0 0 0.164706 0 0 0 0.08 0"/>
<feBlend mode="normal" in2="BackgroundImageFix" result="effect1_dropShadow_2420_11775"/>
<feBlend mode="normal" in="SourceGraphic" in2="effect1_dropShadow_2420_11775" result="shape"/>
</filter>
</defs>
</svg>
