<svg width="163" height="138" viewBox="0 0 163 138" fill="none" xmlns="http://www.w3.org/2000/svg">
<rect x="9" y="1" width="120" height="120" rx="60" fill="#F1F5F9"/>
<circle cx="4" cy="28" r="2" fill="#FFD9A9"/>
<circle cx="133" cy="22" r="2" fill="#2DD4BF"/>
<circle cx="144.5" cy="31.5" r="3.5" fill="#E2E8F0"/>
<circle cx="3" cy="120" r="2" fill="#FF8092"/>
<g filter="url(#filter0_d_2420_11594)">
<path d="M18 9.90857C18 9.10191 18.906 8.62722 19.5692 9.08638L23.9308 12.1059C24.2732 12.343 24.7268 12.343 25.0692 12.1059L30.4308 8.39407C30.7732 8.15699 31.2268 8.15699 31.5692 8.39407L36.9514 12.1202C37.2835 12.3501 37.7215 12.3576 38.0613 12.1392L43.9592 8.34763C44.2887 8.13587 44.7113 8.13587 45.0408 8.34763L50.9153 12.1241C51.2668 12.3501 51.7218 12.3337 52.0561 12.0829L56.9 8.45C57.2556 8.18333 57.7444 8.18333 58.1 8.45L62.9234 12.0675C63.2677 12.3258 63.7387 12.3347 64.0926 12.0897L69.4074 8.41026C69.7613 8.16526 70.2323 8.1742 70.5766 8.43246L75.3732 12.0299C75.7413 12.306 76.2503 12.2952 76.6064 12.0038L80.8668 8.5181C81.2351 8.21671 81.7649 8.21671 82.1332 8.5181L86.3936 12.0038C86.7497 12.2952 87.2587 12.306 87.6268 12.0299L91.4 9.2C92.0592 8.70557 93 9.17595 93 10V112.277C93 113.045 92.1705 113.526 91.5039 113.145L86.4961 110.284C86.1887 110.108 85.8113 110.108 85.5039 110.284L79.515 113.706C79.1975 113.887 78.8063 113.881 78.4948 113.689L73.0705 110.351C72.7253 110.139 72.286 110.156 71.9582 110.394L67.5882 113.572C67.2375 113.827 66.7625 113.827 66.4118 113.572L62.0882 110.428C61.7375 110.173 61.2625 110.173 60.9118 110.428L56.6509 113.527C56.2709 113.803 55.7496 113.777 55.3984 113.465L52.1016 110.535C51.7504 110.223 51.2291 110.197 50.8491 110.473L46.6509 113.527C46.2709 113.803 45.7496 113.777 45.3984 113.465L42.1644 110.591C41.7855 110.254 41.2145 110.254 40.8356 110.591L37.6644 113.409C37.2855 113.746 36.7145 113.746 36.3356 113.409L33.1304 110.56C32.7663 110.237 32.2218 110.223 31.8414 110.527L28.1586 113.473C27.7782 113.777 27.2337 113.763 26.8696 113.44L23.6304 110.56C23.2663 110.237 22.7218 110.223 22.3414 110.527L19.6247 112.7C18.9699 113.224 18 112.758 18 111.919V9.90857Z" fill="white"/>
</g>
<rect x="26" y="28" width="58" height="4" rx="2" fill="#E2E8F0"/>
<rect x="26" y="37" width="37" height="4" rx="2" fill="#E2E8F0"/>
<rect x="66" y="37" width="18" height="4" rx="2" fill="#E2E8F0"/>
<rect x="26" y="46" width="22" height="4" rx="2" fill="#E2E8F0"/>
<rect x="51" y="46" width="33" height="4" rx="2" fill="#E2E8F0"/>
<rect x="26" y="55" width="47" height="4" rx="2" fill="#E2E8F0"/>
<rect x="52" y="70" width="32" height="4" rx="2" fill="#E2E8F0"/>
<rect x="52" y="79" width="22" height="4" rx="2" fill="#E2E8F0"/>
<rect x="52" y="88" width="32" height="4" rx="2" fill="#E2E8F0"/>
<path d="M40.2663 75.6667C40.0009 74.9137 39.5163 74.2573 38.8747 73.782C38.2331 73.3068 37.464 73.0344 36.6663 73H31.333C30.2721 73 29.2547 73.4214 28.5046 74.1716C27.7544 74.9217 27.333 75.9391 27.333 77C27.333 78.0609 27.7544 79.0783 28.5046 79.8284C29.2547 80.5786 30.2721 81 31.333 81H36.6663C37.7272 81 38.7446 81.4214 39.4948 82.1716C40.2449 82.9217 40.6663 83.9391 40.6663 85C40.6663 86.0609 40.2449 87.0783 39.4948 87.8284C38.7446 88.5786 37.7272 89 36.6663 89H31.333C30.5353 88.9656 29.7662 88.6932 29.1246 88.218C28.4831 87.7427 27.9984 87.0863 27.733 86.3333M33.9997 69V73M33.9997 89V93" stroke="#CBD5E1" stroke-width="2" stroke-linecap="round" stroke-linejoin="round"/>
<g filter="url(#filter1_d_2420_11594)">
<path d="M72.6835 95C70.1004 95 68 92.8996 68 90.3165V56.6835C68 54.1004 70.1004 52 72.6835 52H129.706C132.288 52 134.39 54.1004 134.39 56.6835V90.3165C134.39 92.8996 132.288 95 129.706 95H72.6835Z" fill="#FF9F29"/>
</g>
<path d="M78.547 79C76.5909 79 75 77.6535 75 75.9994C75 74.3453 76.5909 73 78.547 73H91.453C93.4091 73 95 74.3453 95 75.9994C95 77.6535 93.4091 79 91.453 79H78.547Z" fill="white"/>
<path d="M112.735 89.5891C109.673 89.5891 107.182 87.0975 107.182 84.0358C107.182 80.974 109.673 78.4824 112.735 78.4824C115.797 78.4824 118.288 80.974 118.288 84.0358C118.288 87.0975 115.797 89.5891 112.735 89.5891Z" fill="#0F172A"/>
<path d="M120.911 89.5891C117.849 89.5891 115.357 87.0975 115.357 84.0358C115.357 80.974 117.849 78.4824 120.911 78.4824C123.972 78.4824 126.464 80.974 126.464 84.0358C126.464 87.0975 123.972 89.5891 120.911 89.5891Z" fill="#0F172A"/>
<path d="M75.6406 65.832H85.1123" stroke="white" stroke-linecap="round" stroke-linejoin="round"/>
<path d="M89.6348 65.832H99.1065" stroke="white" stroke-linecap="round" stroke-linejoin="round"/>
<path d="M116.948 65.832H126.42" stroke="white" stroke-linecap="round" stroke-linejoin="round"/>
<path d="M103.301 65.832H112.773" stroke="white" stroke-linecap="round" stroke-linejoin="round"/>
<defs>
<filter id="filter0_d_2420_11594" x="0" y="0.188965" width="107" height="137.648" filterUnits="userSpaceOnUse" color-interpolation-filters="sRGB">
<feFlood flood-opacity="0" result="BackgroundImageFix"/>
<feColorMatrix in="SourceAlpha" type="matrix" values="0 0 0 0 0 0 0 0 0 0 0 0 0 0 0 0 0 0 127 0" result="hardAlpha"/>
<feOffset dx="-2" dy="8"/>
<feGaussianBlur stdDeviation="8"/>
<feComposite in2="hardAlpha" operator="out"/>
<feColorMatrix type="matrix" values="0 0 0 0 0.0588235 0 0 0 0 0.0901962 0 0 0 0 0.164706 0 0 0 0.06 0"/>
<feBlend mode="normal" in2="BackgroundImageFix" result="effect1_dropShadow_2420_11594"/>
<feBlend mode="normal" in="SourceGraphic" in2="effect1_dropShadow_2420_11594" result="shape"/>
</filter>
<filter id="filter1_d_2420_11594" x="43.8" y="30" width="119.19" height="95.8" filterUnits="userSpaceOnUse" color-interpolation-filters="sRGB">
<feFlood flood-opacity="0" result="BackgroundImageFix"/>
<feColorMatrix in="SourceAlpha" type="matrix" values="0 0 0 0 0 0 0 0 0 0 0 0 0 0 0 0 0 0 127 0" result="hardAlpha"/>
<feOffset dx="2.2" dy="4.4"/>
<feGaussianBlur stdDeviation="13.2"/>
<feComposite in2="hardAlpha" operator="out"/>
<feColorMatrix type="matrix" values="0 0 0 0 0.0588235 0 0 0 0 0.0901962 0 0 0 0 0.164706 0 0 0 0.15 0"/>
<feBlend mode="normal" in2="BackgroundImageFix" result="effect1_dropShadow_2420_11594"/>
<feBlend mode="normal" in="SourceGraphic" in2="effect1_dropShadow_2420_11594" result="shape"/>
</filter>
</defs>
</svg>
