<svg width="25" height="24" viewBox="0 0 25 24" fill="none" xmlns="http://www.w3.org/2000/svg">
<path d="M12.26 10.87C12.16 10.86 12.04 10.86 11.93 10.87C9.55003 10.79 7.66003 8.84 7.66003 6.44C7.66003 3.99 9.64003 2 12.1 2C14.55 2 16.54 3.99 16.54 6.44C16.53 8.84 14.64 10.79 12.26 10.87Z" stroke="#94A3B8" stroke-width="1.5" stroke-linecap="round" stroke-linejoin="round"/>
<path d="M6.91504 13.3725C4.49504 14.9925 4.49504 17.6325 6.91504 19.2425C9.66504 21.0825 14.175 21.0825 16.925 19.2425C19.345 17.6225 19.345 14.9825 16.925 13.3725C14.185 11.5425 9.67504 11.5425 6.91504 13.3725Z" stroke="#94A3B8" stroke-width="1.5" stroke-linecap="round" stroke-linejoin="round"/>
</svg>
