<svg width="16" height="16" viewBox="0 0 16 16" fill="none" xmlns="http://www.w3.org/2000/svg">
<path d="M1.33325 3.83331V2.99998C1.33325 2.55795 1.50885 2.13403 1.82141 1.82147C2.13397 1.50891 2.55789 1.33331 2.99992 1.33331H4.66659M1.33325 12.1666V13C1.33325 13.442 1.50885 13.8659 1.82141 14.1785C2.13397 14.4911 2.55789 14.6666 2.99992 14.6666H4.66659M11.3333 1.33331H12.9999C13.4419 1.33331 13.8659 1.50891 14.1784 1.82147C14.491 2.13403 14.6666 2.55795 14.6666 2.99998V3.83331M11.3333 14.6666H12.9999C13.4419 14.6666 13.8659 14.4911 14.1784 14.1785C14.491 13.8659 14.6666 13.442 14.6666 13V12.1666M2.16659 7.99998H13.8333" stroke="#FF9F29" stroke-width="1.5" stroke-linecap="round" stroke-linejoin="round"/>
</svg>
