<svg width="16" height="17" viewBox="0 0 16 17" fill="none" xmlns="http://www.w3.org/2000/svg">
<path d="M2.00665 7.82666V10.82C2.00665 13.8133 3.20665 15.0133 6.19999 15.0133H9.79332C12.7867 15.0133 13.9867 13.8133 13.9867 10.82V7.82666" stroke="#0F172A" stroke-width="1.4" stroke-linecap="round" stroke-linejoin="round"/>
<path d="M7.99999 8.34684C9.21999 8.34684 10.12 7.35351 9.99999 6.13351L9.55999 1.68018H6.44666L5.99999 6.13351C5.87999 7.35351 6.77999 8.34684 7.99999 8.34684Z" stroke="#0F172A" stroke-width="1.4" stroke-linecap="round" stroke-linejoin="round"/>
<path d="M12.2067 8.34684C13.5533 8.34684 14.54 7.25351 14.4067 5.91351L14.22 4.08018C13.98 2.34684 13.3133 1.68018 11.5667 1.68018H9.53333L9.99999 6.35351C10.1133 7.45351 11.1067 8.34684 12.2067 8.34684Z" stroke="#0F172A" stroke-width="1.4" stroke-linecap="round" stroke-linejoin="round"/>
<path d="M3.75998 8.34684C4.85998 8.34684 5.85332 7.45351 5.95998 6.35351L6.10665 4.88018L6.42665 1.68018H4.39332C2.64665 1.68018 1.97998 2.34684 1.73998 4.08018L1.55998 5.91351C1.42665 7.25351 2.41332 8.34684 3.75998 8.34684Z" stroke="#0F172A" stroke-width="1.4" stroke-linecap="round" stroke-linejoin="round"/>
<path d="M7.99998 11.6802C6.88665 11.6802 6.33331 12.2335 6.33331 13.3468V15.0135H9.66665V13.3468C9.66665 12.2335 9.11331 11.6802 7.99998 11.6802Z" stroke="#0F172A" stroke-width="1.4" stroke-linecap="round" stroke-linejoin="round"/>
</svg>
